<mxfile host="Electron" modified="2023-09-28T16:24:54.941Z" agent="Mozilla/5.0 (Macintosh; Intel Mac OS X 10_15_7) AppleWebKit/537.36 (KHTML, like Gecko) draw.io/21.6.8 Chrome/114.0.5735.289 Electron/25.5.0 Safari/537.36" etag="WVN5uXTFw_SXpWBtWAAs" version="21.6.8" type="device">
  <diagram name="Page-1" id="5H5DG0xMib633VFO3pPt">
    <mxGraphModel dx="1199" dy="714" grid="1" gridSize="10" guides="1" tooltips="1" connect="1" arrows="1" fold="1" page="1" pageScale="1" pageWidth="1100" pageHeight="850" math="0" shadow="0">
      <root>
        <mxCell id="0" />
        <mxCell id="1" parent="0" />
        <mxCell id="HOVY8wTWyFo34V_nL3aS-1" value="port" style="rounded=1;whiteSpace=wrap;html=1;strokeColor=none;" vertex="1" parent="1">
          <mxGeometry x="120" y="120" width="120" height="40" as="geometry" />
        </mxCell>
        <mxCell id="HOVY8wTWyFo34V_nL3aS-2" value="datum" style="rounded=1;whiteSpace=wrap;html=1;strokeColor=none;" vertex="1" parent="1">
          <mxGeometry x="120" y="160" width="120" height="40" as="geometry" />
        </mxCell>
        <mxCell id="HOVY8wTWyFo34V_nL3aS-3" value="from" style="rounded=1;whiteSpace=wrap;html=1;strokeColor=none;" vertex="1" parent="1">
          <mxGeometry x="120" y="200" width="120" height="40" as="geometry" />
        </mxCell>
        <mxCell id="HOVY8wTWyFo34V_nL3aS-4" value="cause" style="rounded=1;whiteSpace=wrap;html=1;strokeColor=none;" vertex="1" parent="1">
          <mxGeometry x="120" y="240" width="120" height="40" as="geometry" />
        </mxCell>
        <mxCell id="HOVY8wTWyFo34V_nL3aS-5" value="Port_Type" style="rounded=1;whiteSpace=wrap;html=1;" vertex="1" parent="1">
          <mxGeometry x="240" y="120" width="120" height="40" as="geometry" />
        </mxCell>
        <mxCell id="HOVY8wTWyFo34V_nL3aS-6" value="Datum_Type" style="rounded=1;whiteSpace=wrap;html=1;" vertex="1" parent="1">
          <mxGeometry x="240" y="160" width="120" height="40" as="geometry" />
        </mxCell>
        <mxCell id="HOVY8wTWyFo34V_nL3aS-7" value="^Eh" style="rounded=1;whiteSpace=wrap;html=1;" vertex="1" parent="1">
          <mxGeometry x="240" y="200" width="120" height="40" as="geometry" />
        </mxCell>
        <mxCell id="HOVY8wTWyFo34V_nL3aS-8" value="^Message_Type" style="rounded=1;whiteSpace=wrap;html=1;" vertex="1" parent="1">
          <mxGeometry x="240" y="240" width="120" height="40" as="geometry" />
        </mxCell>
        <mxCell id="HOVY8wTWyFo34V_nL3aS-10" value="^" style="rounded=1;whiteSpace=wrap;html=1;fontStyle=1" vertex="1" parent="1">
          <mxGeometry x="440" y="360" width="120" height="40" as="geometry" />
        </mxCell>
        <mxCell id="HOVY8wTWyFo34V_nL3aS-11" value="len" style="rounded=1;whiteSpace=wrap;html=1;" vertex="1" parent="1">
          <mxGeometry x="560" y="360" width="80" height="40" as="geometry" />
        </mxCell>
        <mxCell id="HOVY8wTWyFo34V_nL3aS-12" value="len" style="rounded=1;whiteSpace=wrap;html=1;" vertex="1" parent="1">
          <mxGeometry x="440" y="400" width="80" height="40" as="geometry" />
        </mxCell>
        <mxCell id="HOVY8wTWyFo34V_nL3aS-17" value="string" style="rounded=1;whiteSpace=wrap;html=1;strokeColor=none;" vertex="1" parent="1">
          <mxGeometry x="320" y="360" width="120" height="40" as="geometry" />
        </mxCell>
        <mxCell id="HOVY8wTWyFo34V_nL3aS-18" value="int" style="rounded=1;whiteSpace=wrap;html=1;strokeColor=none;" vertex="1" parent="1">
          <mxGeometry x="320" y="400" width="120" height="40" as="geometry" />
        </mxCell>
        <mxCell id="HOVY8wTWyFo34V_nL3aS-19" value="Port_Type" style="rounded=1;whiteSpace=wrap;html=1;strokeColor=none;" vertex="1" parent="1">
          <mxGeometry x="200" y="380" width="120" height="40" as="geometry" />
        </mxCell>
        <mxCell id="HOVY8wTWyFo34V_nL3aS-20" value="^" style="rounded=1;whiteSpace=wrap;html=1;" vertex="1" parent="1">
          <mxGeometry x="440" y="480" width="120" height="40" as="geometry" />
        </mxCell>
        <mxCell id="HOVY8wTWyFo34V_nL3aS-21" value="type id" style="rounded=1;whiteSpace=wrap;html=1;" vertex="1" parent="1">
          <mxGeometry x="560" y="480" width="80" height="40" as="geometry" />
        </mxCell>
        <mxCell id="HOVY8wTWyFo34V_nL3aS-22" value="Datum_Type" style="rounded=1;whiteSpace=wrap;html=1;strokeColor=none;" vertex="1" parent="1">
          <mxGeometry x="200" y="480" width="120" height="40" as="geometry" />
        </mxCell>
      </root>
    </mxGraphModel>
  </diagram>
</mxfile>
